# xmcd
# 
# Track frame offsets:
#     150
#     12597
#     25321
#     43262
#     62144
#     77754
#     100199
#     116723
#     131352
#     147936
#     160980
#     176643
#     187306
#     206722
#     213788
#     235978
#     253300
#     278323
#     297230
#     313894
# 
# Disc length: 4499
# 
# Revision: 1
# Processed by: cddbd v1.5.2PL0 Copyright (c) Steve Scherf et al.
# Submitted via: fre:ac v1.0.31
# 
DISCID=33119114
DTITLE=Jack Bruce - Jack Bruce - Sunshine Of Your Love - A Life In Music -  Disc 1
DYEAR=2015
DGENRE=Rock/Pop
TTITLE0=N.S.U
TTITLE1=I Feel Free
TTITLE2=I'm So Glad
TTITLE3=Sunshine Of Your Love
TTITLE4=We're Going Wring
TTITLE5=White Room
TTITLE6=Deserted Cities Of The Heart
TTITLE7=Dont That Scrapyard Thing
TTITLE8=Never Tell Your Mother She's Out Of Tune
TTITLE9=Rope Ladder To The Moon
TTITLE10=Theme For An Imaginary Western
TTITLE11=Weird of Hermiston
TTITLE12=Folk Song
TTITLE13=Can You Follow
TTITLE14=Morning Story
TTITLE15=You Burned The Tables on Me
TTITLE16=Pieces Of Mind
TTITLE17=Running Through Our Hands
TTITLE18=Keep It down
TTITLE19=Something To Live For
EXTD=
EXTT0=
EXTT1=
EXTT2=
EXTT3=
EXTT4=
EXTT5=
EXTT6=
EXTT7=
EXTT8=
EXTT9=
EXTT10=
EXTT11=
EXTT12=
EXTT13=
EXTT14=
EXTT15=
EXTT16=
EXTT17=
EXTT18=
EXTT19=
PLAYORDER=
